<svg version="1.1" xmlns="http://www.w3.org/2000/svg" xmlns:xlink="http://www.w3.org/1999/xlink" width="28.99103" height="28.77841" viewBox="0,0,28.99103,28.77841"><g transform="translate(-305.06828,-165.75025)"><g stroke="none" stroke-width="0.5" stroke-miterlimit="10"><path d="M306.24732,180c0,-7.59538 6.15727,-13.75268 13.75268,-13.75268c7.59538,0 13.75268,6.15727 13.75268,13.75268c0,7.59538 -6.15727,13.75268 -13.75268,13.75268c-7.59538,0 -13.75268,-6.15727 -13.75268,-13.75268z" fill="#ff8f66"/><path d="M317.83696,194.29031c-1.04006,-0.69338 -0.34669,-1.73344 -0.34669,-1.73344l0.0406,0.0588c0.73403,-2.6742 0.71833,-5.67651 1.00595,-8.45095c0.00621,-0.05993 0.01246,-0.11986 0.01873,-0.1798c-0.39425,-0.03684 -0.78833,-0.08231 -1.18198,-0.136c-0.36033,2.41578 -1.0722,4.81214 -2.03036,7.05284l-1.30439,0.97669c0,0 -1.02404,0.71683 -1.74087,-0.30721c-0.71683,-1.02404 0.30721,-1.74087 0.30721,-1.74087l0.77894,-0.48164c0.67884,-1.91506 1.21848,-3.92863 1.50691,-5.94534c-3.15015,-0.69768 -6.23406,-1.87268 -9.10721,-3.30595c0,0 -1.11803,-0.55902 -0.55902,-1.67705c0.55902,-1.11803 1.67705,-0.55902 1.67705,-0.55902c2.58026,1.29291 5.36196,2.38488 8.20987,3.0555c0.12768,-4.0912 -0.98504,-8.03157 -4.2926,-11.00835c0,0 -0.92912,-0.83621 -0.09291,-1.76532c0.83621,-0.92912 1.76532,-0.09291 1.76532,-0.09291c3.94391,3.54954 5.34863,8.38846 5.12321,13.34004c0.403,0.05696 0.80653,0.10438 1.21021,0.14165c0.54845,-4.82684 1.16892,-9.68397 1.1637,-14.53174c0,0 0,-1.25 1.25,-1.25c1.25,0 1.25,1.25 1.25,1.25c-0.0048,4.88228 -0.61307,9.76769 -1.16104,14.62743c0.30553,-0.00553 0.61071,-0.01762 0.91538,-0.03654c0.48592,-4.70972 2.34464,-9.49936 4.2318,-13.2749c0,0 0.55902,-1.11803 1.67705,-0.55902c1.11803,0.55902 0.55902,1.67705 0.55902,1.67705c-1.62537,3.24966 -3.39883,7.58281 -3.95673,11.83787c2.35521,-0.45992 4.65108,-1.3841 6.80937,-2.90009l0.99252,-0.30585c0,0 1.22573,-0.24515 1.47087,0.98058c0.24515,1.22573 -0.98058,1.47087 -0.98058,1.47087l-0.04915,-0.09752c-2.65943,1.85588 -5.50519,2.92952 -8.42103,3.39715c-0.00853,2.44533 0.49346,4.78393 1.77961,6.78271l0.66264,0.62054c0,0 0.88388,0.88388 0,1.76777c-0.88388,0.88388 -1.76777,0 -1.76777,0l-1.00403,-1.04612c-1.49072,-2.36439 -2.1008,-5.06813 -2.1252,-7.87117c-0.35426,0.01722 -0.70907,0.02638 -1.06422,0.02779c-0.01119,0.10678 -0.0223,0.21355 -0.03332,0.3203c-0.3014,2.92011 -0.34087,6.01123 -1.07739,8.84072l-0.37606,0.6838c0,0 -0.69338,1.04006 -1.73344,0.34669z" fill="#000000"/></g></g></svg>