<svg version="1.1" xmlns="http://www.w3.org/2000/svg" xmlns:xlink="http://www.w3.org/1999/xlink" width="26.27307" height="26.27307" viewBox="0,0,26.27307,26.27307"><g transform="translate(-226.86346,-166.86346)"><g stroke="none" stroke-miterlimit="10"><path d="M226.86346,187.20065c0,-4.81275 0,-11.90586 0,-14.56867c0,-2.01555 1.18643,-4.47844 2.47312,-4.47844c1.4346,0 11.5233,0 11.5233,0l-0.16057,23.8116c0,0 -10.92429,0 -12.38601,0c-0.79749,0 -1.44984,-2.0083 -1.44984,-4.7645z" fill="#a6bbe5" stroke-width="0"/><path d="M251.6867,191.84646c-1.46172,0 -12.38601,0 -12.38601,0l-0.16057,-23.8116c0,0 10.0887,0 11.5233,0c1.28669,0 2.47312,2.46288 2.47312,4.47843c0,2.66281 0,9.75592 0,14.56867c0,2.75619 -0.65235,4.7645 -1.44984,4.7645z" fill="#a6bbe5" stroke-width="0"/><path d="M228.3133,168.03486c1.46172,0 12.38601,0 12.38601,0l0.16057,23.8116c0,0 -10.0887,0 -11.5233,0c-1.28669,0 -2.47312,-2.46289 -2.47312,-4.47844c0,-2.66281 0,-9.75592 0,-14.56867c0,-2.75619 0.65235,-4.7645 1.44984,-4.7645z" fill="#a6bbe5" stroke-width="0"/><path d="M253.13654,172.91804c0,4.81275 0,11.90586 0,14.56867c0,2.01555 -1.18643,4.47843 -2.47312,4.47843c-1.4346,0 -11.5233,0 -11.5233,0l0.16057,-23.8116c0,0 10.92429,0 12.38601,0c0.79749,0 1.44984,2.00831 1.44984,4.7645z" fill="#a6bbe5" stroke-width="0"/><path d="M232.79935,166.86346c4.81275,0 11.90586,0 14.56867,0c2.01555,0 4.47844,1.18643 4.47844,2.47312c0,1.4346 0,11.5233 0,11.5233l-23.8116,-0.16057c0,0 0,-10.92429 0,-12.38601c0,-0.79749 2.0083,-1.44984 4.7645,-1.44984z" fill="#a6bbe5" stroke-width="0"/><path d="M228.15354,191.6867c0,-1.46172 0,-12.38601 0,-12.38601l23.8116,-0.16057c0,0 0,10.0887 0,11.5233c0,1.28669 -2.46288,2.47312 -4.47843,2.47312c-2.66281,0 -9.75592,0 -14.56867,0c-2.75619,0 -4.7645,-0.65235 -4.7645,-1.44984z" fill="#a6bbe5" stroke-width="0"/><path d="M251.96514,168.3133c0,1.46172 0,12.38601 0,12.38601l-23.8116,0.16057c0,0 0,-10.0887 0,-11.5233c0,-1.28669 2.46289,-2.47312 4.47844,-2.47312c2.66281,0 9.75592,0 14.56867,0c2.75619,0 4.7645,0.65235 4.7645,1.44984z" fill="#a6bbe5" stroke-width="0"/><path d="M247.08196,193.13654c-4.81275,0 -11.90586,0 -14.56867,0c-2.01555,0 -4.47843,-1.18643 -4.47843,-2.47312c0,-1.4346 0,-11.5233 0,-11.5233l23.8116,0.16057c0,0 0,10.92429 0,12.38601c0,0.79749 -2.00831,1.44984 -4.7645,1.44984z" fill="#a6bbe5" stroke-width="0"/><path d="M241.97127,175.82872c-1,0 -1,-1 -1,-1l0.00221,-0.58376c0.02408,-0.35838 0.04815,-0.71676 0.07223,-1.07513c0.24794,-2.05711 -3.98382,3.94346 -4.46322,5.16846c-0.16094,0.41123 0.87338,0.14157 1.29969,0.25678c0.7048,0.19047 1.37403,0.39345 2.01397,0.61301c0.22285,-0.02771 0.48397,0.02552 0.74694,0.26892c3.29049,1.24287 5.82089,3.00187 8.54332,5.89185c0.53118,0.82799 2.16322,2.91375 1.26794,4.02758c-1.33752,1.66402 -19.29562,0.77444 -19.45472,-1.6243c-0.0384,-0.57895 2.59828,-2.83498 3.04887,-3.24267c1.28482,-1.16249 2.52228,-2.34674 3.74896,-3.55309c-1.76293,-0.96436 -3.0695,-1.75972 -3.14678,-2.12027c-0.76734,-3.58018 8.00794,-12.54201 8.39392,-5.61972c-0.02518,0.38054 -0.05037,0.76108 -0.07555,1.14162l0.00221,0.45072c0,0 0,1 -1,1zM239.70258,181.9971c-1.61712,1.84126 -3.87668,4.60409 -5.85162,5.39171c4.1686,0.00313 15.6085,2.03483 13.76232,-0.78495c-0.9284,-0.98005 -4.68014,-2.89903 -7.9107,-4.60676z" fill="#ffffff" stroke-width="0.5"/></g></g></svg>