<svg version="1.1" xmlns="http://www.w3.org/2000/svg" xmlns:xlink="http://www.w3.org/1999/xlink" width="32.66159" height="30.65737" viewBox="0,0,32.66159,30.65737"><g transform="translate(-223.6692,-164.67132)"><g fill="#000000" stroke="none" stroke-width="0.5" stroke-miterlimit="10"><path d="M235.49965,167.64881l0.26697,-0.07026c-0.25672,-0.18879 -0.42332,-0.49298 -0.42332,-0.83608c0,-0.5728 0.46435,-1.03715 1.03715,-1.03715c0.03062,0 0.06094,0.00132 0.09089,0.00392l1.02594,0.07892l-0.00527,0.06856l0.15406,-0.04617c0.02299,0.00898 0.04646,0.01803 0.07037,0.02714c0.12036,-0.33995 0.41296,-0.59847 0.7729,-0.67065l1.4163,-0.31474l0.00505,0.02276c0.03538,-0.0142 0.07097,-0.02796 0.10676,-0.04126c0.66786,-0.24826 1.727,-0.15894 2.66561,-0.07812c0.33236,-0.03196 0.65652,-0.0265 0.96192,0.06852c0.0676,0.0024 0.13289,0.00378 0.19553,0.00391l1.2427,-0.07767c0.02453,-0.00173 0.04929,-0.00262 0.07425,-0.00262c0.5728,0 1.03715,0.46436 1.03715,1.03716c0,0.53127 -0.39947,0.96926 -0.91442,1.02997l-0.54318,0.07242l0.61058,0.23484c0.39459,0.1413 0.67862,0.51493 0.68723,0.95606c0.27471,0.03946 0.54361,0.09865 0.79716,0.20811c0.01907,0.00824 0.03807,0.01659 0.05701,0.02508l0.00272,-0.00908l1.5735,0.47205c0.41433,0.11397 0.72486,0.47851 0.75843,0.92045h0.4819c0.5728,0 1.03715,0.46436 1.03715,1.03716c0,0.23798 -0.08015,0.45722 -0.21492,0.63224c0.18236,0.18691 0.29471,0.44244 0.29471,0.7242c0,0.31627 -0.14157,0.59949 -0.36479,0.78972c1.44168,0.48701 3.10326,0.88524 4.33066,1.75261c1.41578,1.0005 2.35802,1.79081 0.53612,3.49562c-0.4601,0.43052 -1.70357,0.29788 -2.55892,0.14017c0.03069,2.87963 -1.10308,6.3957 -1.8653,8.18904c-0.84149,2.01823 -2.55856,7.17926 -4.78623,8.05435c-5.80866,2.2818 -13.08723,-0.67211 -18.06754,-3.16899c-5.09711,-3.29603 -5.71697,-9.76732 -1.99452,-14.76335c1.35873,-1.8236 3.14096,-3.0959 4.46583,-4.95901c-0.07758,-0.14536 -0.12157,-0.31137 -0.12157,-0.48765c0,-0.24098 0.08219,-0.46277 0.22006,-0.63885c0.02775,-0.5649 0.59264,-0.84734 0.59264,-0.84734l0.06659,-0.02714c1.10789,-0.70473 2.07503,-1.22454 3.31827,-1.67221c0.1056,0.01353 0.22144,0.03153 0.34678,0.05378c0.14103,-0.17153 0.33604,-0.29699 0.55906,-0.3504zM247.41979,175.81533c-1.1933,-0.57622 -1.45838,-0.56217 -2.95096,-0.98698l-0.00451,-0.00323l-0.00052,0.00175l-1.01531,-0.30124c-0.43031,-0.11698 -0.74936,-0.50404 -0.76388,-0.96787c-0.3927,-0.0382 -0.7721,-0.09566 -1.13195,-0.17777c-0.01672,-0.00382 -0.03341,-0.0077 -0.05009,-0.01165l-0.00082,0.00656l-2.04463,-0.25558c-0.51869,-0.05722 -0.92216,-0.49692 -0.92216,-1.03085c0,-0.14142 0.0283,-0.27624 0.07957,-0.39908h-0.87761v0c-0.5728,0 -1.03715,-0.46435 -1.03715,-1.03715c0,-0.06438 0.00587,-0.1274 0.0171,-0.18854c-0.02422,-0.00682 -0.0485,-0.01361 -0.07283,-0.02038l-0.06423,0.25447c0,0 -0.28493,0.99725 -1.28217,0.71232c-0.82312,-0.23518 -0.77272,-0.95564 -0.73003,-1.20006c-0.03726,-0.01111 -0.07364,-0.02426 -0.10902,-0.03932c-0.53589,0.25653 -1.03787,0.55072 -1.54059,0.86331c0.13743,0.43481 -0.10995,0.8589 -0.10995,0.8589c-3.0891,5.29352 -11.99876,12.29438 -3.73268,17.64689c4.81052,2.3984 10.60916,4.65932 16.24263,3.0547c1.36857,-0.38982 3.16638,-5.73295 3.67162,-6.94636c0.64363,-1.48763 2.00176,-5.52522 1.70864,-8.01712c-1.13243,-0.52091 -2.07373,-1.23399 -3.27845,-1.81573z"/><path d="M234.86456,174.562c0,-0.5728 0.46435,-1.03715 1.03715,-1.03715c0.5728,0 1.03715,0.46435 1.03715,1.03715c0,0.5728 -0.46435,1.03715 -1.03715,1.03715c-0.5728,0 -1.03715,-0.46435 -1.03715,-1.03715z"/><path d="M244.67886,178.39197c0,-0.5728 0.46435,-1.03715 1.03715,-1.03715c0.5728,0 1.03715,0.46435 1.03715,1.03715c0,0.5728 -0.46435,1.03715 -1.03715,1.03715c-0.5728,0 -1.03715,-0.46435 -1.03715,-1.03715z"/><path d="M242.39082,188.87797c0.23138,-0.18738 0.59009,-0.32634 1.07612,-0.08333c0.92765,0.46383 0.46382,1.39148 0.46382,1.39148l-0.93355,0.73027c-3.37742,0.23931 -6.9809,0.11456 -10.12925,-1.19494c-1.52464,-0.63414 -3.45507,-0.89272 -3.81151,-2.84616c-0.24955,-1.36764 0.45361,-2.90687 0.93019,-4.14796c0,0 0.37232,-0.96802 1.34034,-0.59571c0.96802,0.37231 0.5957,1.34034 0.5957,1.34034c-0.22037,0.572 -1.38063,2.89951 -0.65928,3.41759c0.69723,0.50075 1.61367,0.58794 2.40584,0.91862c2.69555,1.12521 5.80761,1.24829 8.72158,1.06981z"/></g></g></svg>