<svg version="1.1" xmlns="http://www.w3.org/2000/svg" xmlns:xlink="http://www.w3.org/1999/xlink" width="27.50536" height="27.50536" viewBox="0,0,27.50536,27.50536"><g transform="translate(-226.24732,-166.24732)"><g stroke="none" stroke-width="0.5" stroke-miterlimit="10"><path d="M226.24732,180c0,-7.59538 6.15727,-13.75268 13.75268,-13.75268c7.59538,0 13.75268,6.15727 13.75268,13.75268c0,7.59538 -6.15727,13.75268 -13.75268,13.75268c-7.59538,0 -13.75268,-6.15727 -13.75268,-13.75268z" fill="#9966ff"/><path d="M229.081,174.25682c0,-1.38071 1.11929,-2.5 2.5,-2.5c1.38071,0 2.5,1.11929 2.5,2.5c0,1.38071 -1.11929,2.5 -2.5,2.5c-1.38071,0 -2.5,-1.11929 -2.5,-2.5z" fill="#000000"/><path d="M239.67708,173.18531c0,-1.38071 1.11929,-2.5 2.5,-2.5c1.38071,0 2.5,1.11929 2.5,2.5c0,1.38071 -1.11929,2.5 -2.5,2.5c-1.38071,0 -2.5,-1.11929 -2.5,-2.5z" fill="#000000"/><path d="M240.55005,180.2371c2.568,0.27351 4.25069,-2.33905 6.20262,-2.33905c7.18441,0 -1.21287,7.62609 -5.65776,7.41847c-3.87899,-0.18118 -8.22131,-8.06034 -4.32522,-8.27679c0.39131,-0.25403 0.85814,-0.40157 1.35944,-0.40157c1.38071,0 2.5,1.11929 2.5,2.5c0,0.38318 -0.08621,0.74622 -0.24028,1.07079c0.05155,0.01273 0.10523,0.02219 0.1612,0.02815z" fill="#000000"/></g></g></svg>