<svg version="1.1" xmlns="http://www.w3.org/2000/svg" xmlns:xlink="http://www.w3.org/1999/xlink" width="96.10305" height="296.81561" viewBox="0,0,96.10305,296.81561"><defs><linearGradient x1="52.52512" y1="77.25611" x2="52.52512" y2="132.98367" gradientUnits="userSpaceOnUse" id="color-1"><stop offset="0" stop-color="#ff7b00"/><stop offset="1" stop-color="#ffa11b"/></linearGradient></defs><g transform="translate(-4.47359,-69.64544)"><g stroke-miterlimit="10"><path d="M24.83998,366.46105v-296.81561h7.72706v296.8156z" fill="#a9a9a9" stroke="none" stroke-width="0"/><path d="M4.47359,132.98367v-55.72756h96.10305v55.72756z" fill="url(#color-1)" stroke="none" stroke-width="0"/><g><g><path d="M76.79936,131.03007c0,5.84944 -10.57051,10.59135 -23.60989,10.59135c-13.03938,0 -23.60989,-4.74191 -23.60989,-10.59135c0,-5.84944 10.57051,-10.59135 23.60989,-10.59135c13.03938,0 23.60989,4.74191 23.60989,10.59135z" fill="none" stroke="#5b5b5b" stroke-width="4.5"/><path d="M67.93013,145.41208c-0.00893,-0.07936 -0.01838,-0.15518 -0.0286,-0.22698c-0.05827,-0.40919 -0.1563,-0.93558 -0.24515,-1.51269c-1.14443,0.62692 -2.34947,1.22352 -3.56849,1.76352c0.74044,0.37357 1.42493,1.33376 2.03531,3.14392c0.13497,0.47504 0.25557,0.95457 0.36268,1.43727c0.06063,-0.14319 0.12157,-0.29512 0.18093,-0.45805c0.51378,-1.41027 0.88293,-2.78706 1.26333,-4.147zM38.49453,151.15134c2.31734,-0.56673 6.66876,-0.16278 10.03513,0.31601c-2.05888,-1.59745 -3.98128,-3.36025 -5.85547,-5.16719c-0.92838,0.91412 -2.00818,1.64712 -2.74402,2.70945c-0.49793,0.71886 -0.94948,1.43383 -1.43563,2.14173zM43.9393,144.6022c2.92792,2.84253 5.97915,5.56681 9.51245,7.66957c1.76557,-0.04919 3.60187,-2.00253 5.36947,-3.8366c0.15344,-0.40625 0.27707,-0.82851 0.46296,-1.21404c-3.68279,1.07952 -6.89615,1.26049 -8.20163,-0.26758c-1.2273,-1.71873 -2.4327,-3.49271 -3.80071,-5.07419c-0.41871,-0.48406 -0.62381,-1.4011 -1.2622,-1.44692c-0.88293,-0.06337 -1.78039,3.32963 -2.08034,4.16976zM74.55976,138.59864c-0.66409,0.79211 -1.64065,1.64999 -2.82532,2.51485l-0.00494,0.01431c-0.67218,1.34436 -1.18905,2.72164 -1.6535,4.11055c0.07149,0.56037 0.12718,1.12286 0.20619,1.68224c0.08065,0.57107 0.42359,2.11764 0.66893,1.59568c1.46447,-3.11559 2.88063,-6.50851 3.60865,-9.91763zM42.3107,143.00177c0.71825,-1.86331 1.30678,-4.68457 3.70894,-4.71726c1.48092,-0.02015 2.0743,1.26994 2.86269,2.16235c1.43225,1.62124 2.66588,3.46393 3.93343,5.238c1.22696,2.23453 5.07196,0.83671 9.3267,-1.64096c1.59342,-1.36178 3.39446,-2.4621 5.27656,-3.40837c0.0379,-0.02634 0.07576,-0.0527 0.11357,-0.07905c0.19335,-1.18131 0.81662,-2.06698 2.34748,-2.00795c0.09754,0.00376 0.19355,0.01437 0.28824,0.03081l0.00374,-0.02242l0.13285,0.02214c1.64379,-1.19482 3.10348,-2.28662 4.20889,-3.0787l-0.2644,-0.35253l1.02254,-0.76691c0.18096,-0.1388 0.40738,-0.22131 0.65306,-0.22131c0.59314,0 1.07398,0.48084 1.07398,1.07398v1.80463h-0.01854l0.01583,0.07613c-0.55214,3.89801 -2.00993,7.35277 -3.68832,10.90485c-0.82593,1.74798 -0.96607,3.40711 -3.53495,2.35423c-0.45792,-0.18768 -0.79057,-0.5287 -1.0356,-0.956c-0.37186,1.11835 -0.77632,2.23044 -1.26689,3.32521l0.20616,0.0589l-0.50908,1.7818c-0.12051,0.46132 -0.54009,0.80176 -1.03918,0.80176c-0.53906,0 -0.98537,-0.39715 -1.06226,-0.91483l-0.2549,-1.52942l0.00708,-0.00118l-0.01047,-0.02046c-0.15434,-1.24955 -0.38878,-2.49456 -0.73667,-3.70459c-0.58091,-1.76704 -1.84612,-1.40981 -3.35714,-0.30699c-0.99552,1.75642 -1.67276,4.12219 -3.10721,5.38948c-2.05302,1.81379 -2.44037,1.02413 -4.5896,0.20195c-0.21962,-0.12581 -0.43742,-0.25391 -0.65348,-0.38419c-3.69365,-0.01365 -11.21097,-0.45373 -15.10949,-0.86392v0.3295h-1.28903c-0.59314,0 -1.07397,-0.48083 -1.07397,-1.07397c0,-0.29657 0.12021,-0.56506 0.31456,-0.75941l0.74173,-0.74174c0.84396,-1.05957 1.45955,-2.18349 2.24009,-3.2517c0.82907,-1.13461 2.05779,-1.86692 3.0005,-2.90153c-2.54238,-2.49719 -5.03829,-5.01678 -7.71509,-7.24667c0,0 -0.82505,-0.68754 -0.13751,-1.51259c0.68754,-0.82505 1.51259,-0.13751 1.51259,-0.13751c2.59293,2.16155 5.00746,4.61273 7.46254,7.04639z" fill="#c3c3c3" stroke="none" stroke-width="0.5"/><path d="M54.56115,157.51185c0.69181,0.3694 1.34004,0.79221 1.95671,1.30071c0.00946,-0.71507 0.08129,-1.39941 0.20932,-2.0636c-0.48582,0.16637 -1.00318,0.32029 -1.56956,0.46003zM62.26729,154.21173c0.71235,1.71843 1.29668,3.50462 1.83169,5.28095c-0.00301,-0.02608 -0.00425,-0.04963 -0.00324,-0.06962c0.12543,-2.50043 6.62053,-8.79942 5.89298,-9.44402c-0.664,-0.58829 -1.25668,1.28143 -2.0213,1.73125c-1.7144,1.00857 -3.86004,1.65158 -5.70013,2.50145zM68.528,148.51743c8.15966,-2.37456 -1.22825,9.69337 -2.42934,11.68149c-0.45006,0.74498 -0.84337,2.0251 -1.7121,1.97147c-1.06502,-0.06575 -1.66904,-1.364 -2.3067,-2.21957c-0.87691,-1.17657 -1.57667,-2.9897 -1.87358,-4.73384c-0.28985,0.14481 -0.57357,0.28616 -0.85615,0.42355c-0.57872,1.85807 -0.60454,3.65003 -0.41142,5.65442l0.6252,1.042c0.10276,0.1647 0.16213,0.35926 0.16213,0.56769c0,0.59314 -0.48084,1.07397 -1.07398,1.07397c-0.35633,0 -0.67212,-0.17353 -0.86749,-0.4407l-0.80643,-1.07791l0.00401,-0.003l-0.01105,-0.00652c-1.90641,-2.69341 -4.01315,-3.51059 -7.07236,-4.4882c-0.12823,-0.02926 -0.30931,-0.07171 -0.53385,-0.12655c-0.27828,2.1452 -0.90203,4.46009 -1.37081,6.41796l0.12511,1.3762c0.00372,0.03636 0.00562,0.07327 0.00562,0.11062c0,0.59314 -0.48083,1.07397 -1.07397,1.07397c-0.31235,0 -0.59356,-0.13335 -0.7898,-0.34621l-1.09104,-1.17641l0.00348,-0.00322l-0.01478,-0.00915c-2.3786,-2.7407 -3.56479,-5.75217 -5.27654,-8.87435c-1.17473,-2.14267 -1.99355,-2.61498 -2.6386,-5.09903c0,0 -0.26047,-1.0419 0.78143,-1.30238c1.0419,-0.26048 1.30238,0.78143 1.30238,0.78143c0.01853,0.07781 0.03721,0.15313 0.05603,0.22615c0.00896,-0.00796 0.018,-0.01592 0.02714,-0.02389c1.06446,-0.92813 5.75075,-0.17619 7.02076,0.08175c2.29373,0.46585 3.04693,2.28406 3.07728,4.59404c0.31668,0.08153 0.63348,0.15716 0.95039,0.22549c0.78139,0.24932 1.51197,0.49621 2.20013,0.76314c0.01766,-0.59672 0.61437,-0.89508 0.61437,-0.89508l1.13891,-0.56228c1.27869,-0.32333 2.23392,-0.66434 3.127,-1.05467c0.33042,-0.77327 0.73325,-1.53771 1.19709,-2.31297l0.49144,-0.98288c0.1722,-0.36327 0.54226,-0.61449 0.97099,-0.61449c0.46925,0 0.8682,0.30094 1.0144,0.72035l0.43427,1.15806c2.13001,-1.12748 4.8995,-3.01397 6.88042,-3.59044zM47.54021,155.09251c0.11551,-0.44529 0.20417,-0.88783 0.25081,-1.32629c0.08796,-0.82684 -6.18386,-0.98592 -7.02133,-1.11556c-0.53616,-0.083 0.93525,0.57701 1.45719,0.72509c1.77193,0.50272 3.54175,1.15682 5.31333,1.71676zM45.72929,162.5448c-0.21964,-1.74689 0.48962,-3.56979 1.14202,-5.38157c-1.62463,-0.47859 -3.57984,-1.13734 -5.17609,-1.91684c0.02267,0.04015 0.04552,0.08107 0.06856,0.12276c1.37028,2.4792 2.35155,4.92235 3.96551,7.17565z" fill="#c20000" stroke="none" stroke-width="0.5"/><path d="M71.22841,157.80906c0.9707,0.45951 0.5112,1.43021 0.5112,1.43021l-0.11301,0.23872c-0.97762,2.06421 -1.66401,4.0025 -2.71279,5.85057l0.23763,0.11881l-0.76301,1.52602c-0.17221,0.36327 -0.54226,0.61449 -0.971,0.61449c-0.46099,0 -0.85415,-0.29045 -1.00644,-0.69834l-0.50632,-1.26579l0.03687,-0.01475l-0.07726,-0.10677c-0.06865,-0.55184 -0.1336,-1.10416 -0.20594,-1.65554c-0.02818,-0.21473 0.12037,-0.65884 -0.0956,-0.64265c-0.22508,0.01687 -0.05838,0.45346 -0.1474,0.66088c-0.26404,0.61522 -0.59142,1.20151 -0.90562,1.79268c-0.89357,1.6813 -1.5815,3.30576 -2.41427,4.90583l0.21502,0.09556l-0.86241,1.94042c-0.16202,0.38773 -0.54487,0.6602 -0.99136,0.6602c-0.42874,0 -0.79879,-0.25122 -0.971,-0.61449l-0.50521,-1.01041l0.01215,-0.00607l-0.03128,-0.03427c-0.50181,-1.27841 -1.42668,-2.53404 -2.00562,-3.84833c-0.69006,5.88788 -15.37352,17.03593 -15.36156,1.86155c0.00178,-2.25383 0.31411,-3.57653 1.17331,-4.8963l-0.21589,-0.10795l0.95019,-1.90036c0.1722,-0.36327 0.54226,-0.61449 0.97099,-0.61449c0.59314,0 1.07398,0.48084 1.07398,1.07398c0,0.14961 -0.03059,0.29207 -0.08586,0.42147l-0.49959,1.24898c-0.92571,2.58838 -0.59372,5.79239 2.60514,5.76313c1.07661,-0.00985 2.77117,-0.04692 3.76419,0.26904c0.26866,0.08549 0.73011,0.85038 0.59077,0.60529c-1.41651,-2.49157 -1.81673,-5.56017 -1.81966,-8.56572c0,0 0,-1.07397 1.07397,-1.07397c1.07397,0 1.07398,1.07397 1.07398,1.07397c-0.00273,2.62652 0.84485,4.78993 1.01974,7.31976c0.0234,0.33851 0.14657,0.70468 0.25992,1.06679c0.21032,-0.12902 0.361,-0.23717 0.438,-0.31752c1.35039,-1.40921 0.48912,-5.21694 2.25132,-7.33239c2.04178,1.75737 3.24553,3.72302 4.27919,6.07132c0.35265,-2.43449 1.8207,-5.50853 3.17023,-7.09702c1.75036,-2.06029 2.44211,-2.21076 3.94991,0.35828c0.48126,-1.56507 1.4871,-3.18888 2.06717,-4.41487l0.11301,-0.23873c0,0 0.45951,-0.97071 1.43021,-0.5112zM50.25051,172.89633c-0.55651,-0.07295 -1.01532,-0.14096 -1.20394,-0.15443c-0.49748,-0.03551 -2.90234,0.05654 -3.27368,-0.02666c-0.9235,-0.20692 -1.61688,-0.66583 -2.12431,-1.28181c-0.17712,1.09657 -0.31315,2.15277 -0.2869,3.08959c0.02733,0.97536 3.83216,-0.31002 6.88883,-1.6267z" fill="#2900c2" stroke="none" stroke-width="0.5"/></g><g><path d="M53.38909,120.43872c13.03938,0 23.60989,4.74191 23.60989,10.59135c0,5.84944 -10.57051,10.59135 -23.60989,10.59135c-13.03938,0 -23.60988,-4.74191 -23.60988,-10.59135c0,-5.84944 10.5705,-10.59135 23.60988,-10.59135z" fill="none" stroke="#5b5b5b" stroke-width="4.5"/><path d="M39.91176,149.55908c0.05936,0.16294 0.1203,0.31486 0.18093,0.45805c0.10711,-0.48271 0.22771,-0.96223 0.36268,-1.43727c0.61039,-1.81017 1.29488,-2.77035 2.03531,-3.14392c-1.21902,-0.54 -2.42406,-1.1366 -3.56849,-1.76352c-0.08885,0.57711 -0.18689,1.10351 -0.24515,1.5127c-0.01023,0.0718 -0.01967,0.14762 -0.0286,0.22698c0.3804,1.35994 0.74954,2.73673 1.26333,4.147zM66.6484,149.00961c-0.73584,-1.06233 -1.81565,-1.79532 -2.74402,-2.70944c-1.8742,1.80694 -3.79659,3.56973 -5.85547,5.16718c3.36637,-0.47878 7.71778,-0.88274 10.03513,-0.316c-0.48615,-0.70791 -0.9377,-1.42288 -1.43563,-2.14174zM60.55892,140.43245c-0.63838,0.04582 -0.84348,0.96286 -1.2622,1.44692c-1.368,1.58148 -2.57341,3.35546 -3.80071,5.07419c-1.30548,1.52806 -4.51885,1.3471 -8.20163,0.26758c0.1859,0.38553 0.30952,0.80779 0.46296,1.21403c1.7676,1.83407 3.6039,3.78741 5.36947,3.8366c3.5333,-2.10276 6.58452,-4.82703 9.51245,-7.66957c-0.29995,-0.84013 -1.19741,-4.23313 -2.08034,-4.16976zM35.62745,148.51627c0.24534,0.52195 0.58827,-1.02461 0.66893,-1.59568c0.079,-0.55938 0.13469,-1.12187 0.20619,-1.68224c-0.46445,-1.3889 -0.98132,-2.76619 -1.6535,-4.11055l-0.00494,-0.01431c-1.18467,-0.86486 -2.16123,-1.72273 -2.82532,-2.51485c0.72802,3.40912 2.14418,6.80204 3.60865,9.91763zM71.7304,135.95538c0,0 0.82505,-0.68754 1.51259,0.13751c0.68754,0.82505 -0.13751,1.51259 -0.13751,1.51259c-2.6768,2.22988 -5.17271,4.74948 -7.71509,7.24667c0.94272,1.03462 2.17143,1.76692 3.0005,2.90153c0.78055,1.06821 1.39613,2.19212 2.24009,3.25169l0.74173,0.74174c0.19435,0.19435 0.31456,0.46284 0.31456,0.75941c0,0.59314 -0.48083,1.07398 -1.07397,1.07398h-1.28902v-0.3295c-3.89852,0.41019 -11.41585,0.85027 -15.10949,0.86392c-0.21607,0.13028 -0.43386,0.25838 -0.65348,0.38419c-2.14923,0.82217 -2.53658,1.61184 -4.5896,-0.20195c-1.43444,-1.26729 -2.11169,-3.63307 -3.10721,-5.38949c-1.51102,-1.10282 -2.77623,-1.46005 -3.35714,0.30699c-0.34789,1.21003 -0.58233,2.45504 -0.73667,3.70458l-0.01047,0.02046l0.00708,0.00118l-0.2549,1.52942c-0.07689,0.51767 -0.5232,0.91482 -1.06226,0.91482c-0.49908,0 -0.91867,-0.34043 -1.03918,-0.80175l-0.50908,-1.7818l0.20616,-0.05891c-0.49057,-1.09476 -0.89503,-2.20686 -1.26689,-3.32521c-0.24503,0.4273 -0.57767,0.76832 -1.0356,0.956c-2.56889,1.05288 -2.70902,-0.60626 -3.53495,-2.35424c-1.67838,-3.55209 -3.13618,-7.00685 -3.68832,-10.90485l0.01583,-0.07613h-0.01854v-1.80463c0,-0.59314 0.48083,-1.07397 1.07398,-1.07397c0.24568,0 0.4721,0.0825 0.65306,0.22131l1.02254,0.7669l-0.2644,0.35253c1.10541,0.79208 2.56511,1.88389 4.20889,3.07871l0.13285,-0.02215l0.00374,0.02242c0.09469,-0.01644 0.1907,-0.02705 0.28824,-0.03081c1.53086,-0.05903 2.15413,0.82664 2.34748,2.00795c0.03782,0.02635 0.07568,0.05271 0.11357,0.07905c1.8821,0.94627 3.68313,2.04659 5.27656,3.40837c4.25475,2.47767 8.09974,3.87548 9.3267,1.64095c1.26756,-1.77407 2.50118,-3.61676 3.93343,-5.238c0.78838,-0.89241 1.38177,-2.1825 2.86269,-2.16235c2.40216,0.03269 2.99068,2.85395 3.70894,4.71726c2.45508,-2.43366 4.86961,-4.88484 7.46254,-7.04639z" fill="#c3c3c3" stroke="none" stroke-width="0.5"/><path d="M51.42095,157.20899c-0.56638,-0.13974 -1.08374,-0.29366 -1.56956,-0.46003c0.12803,0.6642 0.19986,1.34854 0.20932,2.0636c0.61668,-0.5085 1.2649,-0.93131 1.95671,-1.30071zM38.61114,151.71029c-0.76462,-0.44982 -1.3573,-2.31954 -2.0213,-1.73125c-0.72755,0.6446 5.76755,6.94359 5.89298,9.44402c0.00101,0.01998 -0.00024,0.04354 -0.00324,0.06962c0.53501,-1.77633 1.11934,-3.56251 1.83169,-5.28095c-1.84009,-0.84987 -3.98573,-1.49288 -5.70013,-2.50145zM44.93099,152.10787l0.43427,-1.15806c0.14619,-0.41941 0.54515,-0.72035 1.0144,-0.72035c0.42874,0 0.79879,0.25122 0.97099,0.61449l0.49144,0.98288c0.46384,0.77526 0.86667,1.5397 1.19709,2.31297c0.89308,0.39033 1.84831,0.73134 3.127,1.05467l1.13891,0.56228c0,0 0.59671,0.29836 0.61437,0.89508c0.68816,-0.26692 1.41874,-0.51381 2.20013,-0.76313c0.31691,-0.06833 0.6337,-0.14396 0.95039,-0.22549c0.03034,-2.30998 0.78354,-4.1282 3.07728,-4.59404c1.27002,-0.25794 5.9563,-1.00988 7.02076,-0.08174c0.00914,0.00797 0.01818,0.01592 0.02714,0.02388c0.01882,-0.07301 0.03749,-0.14834 0.05603,-0.22615c0,0 0.26047,-1.04191 1.30238,-0.78143c1.0419,0.26048 0.78143,1.30238 0.78143,1.30238c-0.64505,2.48405 -1.46386,2.95635 -2.6386,5.09903c-1.71175,3.12219 -2.89794,6.13366 -5.27654,8.87436l-0.01478,0.00914l0.00348,0.00323l-1.09104,1.17641c-0.19624,0.21286 -0.47745,0.34621 -0.7898,0.34621c-0.59314,0 -1.07397,-0.48083 -1.07397,-1.07397c0,-0.03735 0.0019,-0.07425 0.00562,-0.11061l0.12511,-1.3762c-0.46878,-1.95786 -1.09253,-4.27276 -1.37081,-6.41796c-0.22454,0.05485 -0.40562,0.0973 -0.53385,0.12655c-3.0592,0.97761 -5.16595,1.79479 -7.07236,4.4882l-0.01105,0.00653l0.00401,0.003l-0.80643,1.07792c-0.19537,0.26717 -0.51116,0.4407 -0.86749,0.4407c-0.59314,0 -1.07398,-0.48083 -1.07398,-1.07397c0,-0.20843 0.05938,-0.40299 0.16213,-0.56769l0.6252,-1.04201c0.19312,-2.00439 0.16729,-3.79635 -0.41142,-5.65442c-0.28258,-0.13739 -0.5663,-0.27874 -0.85615,-0.42355c-0.29691,1.74414 -0.99667,3.55728 -1.87358,4.73384c-0.63766,0.85557 -1.24168,2.15382 -2.3067,2.21957c-0.86872,0.05363 -1.26203,-1.2265 -1.7121,-1.97148c-1.20109,-1.98812 -10.589,-14.05605 -2.42934,-11.68149c1.98092,0.57647 4.75041,2.46296 6.88042,3.59044zM64.35168,153.37576c0.52194,-0.14808 1.99335,-0.80809 1.45719,-0.72509c-0.83747,0.12964 -7.10929,0.28871 -7.02133,1.11556c0.04664,0.43846 0.1353,0.881 0.25081,1.32629c1.77157,-0.55993 3.5414,-1.21403 5.31333,-1.71675zM64.81478,155.36915c0.02304,-0.04169 0.0459,-0.0826 0.06857,-0.12275c-1.59625,0.77949 -3.55146,1.43824 -5.17609,1.91683c0.65241,1.81178 1.36166,3.63468 1.14202,5.38157c1.61395,-2.2533 2.59522,-4.69645 3.96551,-7.17565z" fill="#c20000" stroke="none" stroke-width="0.5"/><path d="M36.78036,158.32027l0.11301,0.23873c0.58007,1.22599 1.58591,2.84981 2.06717,4.41487c1.5078,-2.56904 2.19955,-2.41858 3.94991,-0.35828c1.34954,1.58849 2.81758,4.66253 3.17023,7.09702c1.03366,-2.34831 2.23741,-4.31394 4.27919,-6.07132c1.7622,2.11545 0.90093,5.92318 2.25132,7.33239c0.07699,0.08035 0.22767,0.18849 0.438,0.31751c0.11335,-0.36211 0.23652,-0.72828 0.25992,-1.06679c0.17489,-2.52982 1.02247,-4.69323 1.01974,-7.31975c0,0 0.00001,-1.07397 1.07398,-1.07397c1.07397,0 1.07397,1.07397 1.07397,1.07397c-0.00293,3.00555 -0.40315,6.07414 -1.81966,8.56571c-0.13934,0.24509 0.32211,-0.5198 0.59077,-0.60529c0.99301,-0.31596 2.68758,-0.27889 3.76419,-0.26904c3.19886,0.02927 3.53084,-3.17475 2.60514,-5.76313l-0.49959,-1.24898c-0.05527,-0.1294 -0.08586,-0.27187 -0.08586,-0.42148c0,-0.59314 0.48084,-1.07397 1.07398,-1.07397c0.42874,0 0.79879,0.25122 0.97099,0.61449l0.95018,1.90036l-0.21588,0.10795c0.8592,1.31976 1.17153,2.64247 1.17331,4.8963c0.01196,15.17439 -14.6715,4.02633 -15.36155,-1.86155c-0.57894,1.31429 -1.50381,2.56992 -2.00562,3.84833l-0.03128,0.03427l0.01215,0.00607l-0.50521,1.01041c-0.1722,0.36327 -0.54226,0.61449 -0.971,0.61449c-0.44649,0 -0.82934,-0.27246 -0.99136,-0.66019l-0.86241,-1.94042l0.21502,-0.09556c-0.83277,-1.60007 -1.5207,-3.22452 -2.41427,-4.90582c-0.31419,-0.59117 -0.64158,-1.17747 -0.90562,-1.79269c-0.08902,-0.20741 0.07768,-0.644 -0.1474,-0.66088c-0.21597,-0.01619 -0.06742,0.42792 -0.0956,0.64266c-0.07234,0.55138 -0.1373,1.1037 -0.20594,1.65554l-0.07726,0.10677l0.03687,0.01475l-0.50632,1.2658c-0.1523,0.40788 -0.54545,0.69833 -1.00644,0.69833c-0.42874,0 -0.79879,-0.25122 -0.971,-0.61449l-0.76301,-1.52602l0.23763,-0.11882c-1.04878,-1.84807 -1.73517,-3.78635 -2.71279,-5.85056l-0.11301,-0.23873c0,0 -0.4595,-0.9707 0.5112,-1.43021c0.9707,-0.45951 1.43021,0.5112 1.43021,0.5112zM63.21689,174.52304c0.02625,-0.93682 -0.10979,-1.99302 -0.2869,-3.08959c-0.50744,0.61598 -1.20081,1.07489 -2.12431,1.28181c-0.37134,0.0832 -2.77619,-0.00886 -3.27368,0.02665c-0.18862,0.01346 -0.64743,0.08148 -1.20394,0.15443c3.05667,1.31668 6.8615,2.60206 6.88883,1.6267z" fill="#2900c2" stroke="none" stroke-width="0.5"/></g><path d="M76.7691,130.44752c0,5.84944 -10.5705,10.59135 -23.60988,10.59135c-13.03938,0 -23.60989,-4.74191 -23.60989,-10.59135c0,-5.84944 10.57051,-10.59135 23.60989,-10.59135c13.03938,0 23.60988,4.74191 23.60988,10.59135z" fill="none" stroke="#5b5b5b" stroke-width="4.5"/></g></g></g></svg>